<svg width="23" height="21" viewBox="0 0 23 21" fill="none" xmlns="http://www.w3.org/2000/svg">
<g id="&#229;&#156;&#134;&#232;&#167;&#146;-&#232;&#180;&#173;&#231;&#137;&#169;&#232;&#189;&#166;1-&#233;&#157;&#162;">
<g id="&#229;&#156;&#134;&#232;&#167;&#146;-&#231;&#188;&#150;&#232;&#190;&#145;&#232;&#181;&#132;&#230;&#150;&#153;-&#233;&#157;&#162;">
<g id="Group 2">
<path id="Combined Shape" fill-rule="evenodd" clip-rule="evenodd" d="M0.667969 1.32877C0.667969 1.69697 0.966442 1.99545 1.33463 1.99545H3.19181C3.53325 1.99545 3.8195 2.25342 3.85489 2.59302L5.13522 14.8806C5.24137 15.8994 6.10012 16.6733 7.12443 16.6733H19.9607C20.3288 16.6733 20.6273 16.3749 20.6273 16.0067C20.6273 15.6385 20.3288 15.34 19.9607 15.34H7.12443C6.78299 15.34 6.49675 15.082 6.46136 14.7424L6.37737 13.9364L19.2515 12.73C19.6592 12.6918 20.0024 12.4089 20.1177 12.0161L22.2913 4.61516C22.4794 3.97476 21.9993 3.33337 21.3318 3.33337H5.27257L5.18102 2.45483C5.07487 1.43603 4.21613 0.662109 3.19181 0.662109H1.33463C0.966442 0.662109 0.667969 0.960587 0.667969 1.32877Z" fill="white"/>
<path id="Oval" fill-rule="evenodd" clip-rule="evenodd" d="M8.00129 20.6667C8.73766 20.6667 9.33461 20.0697 9.33461 19.3333C9.33461 18.597 8.73766 18 8.00129 18C7.26492 18 6.66797 18.597 6.66797 19.3333C6.66797 20.0697 7.26492 20.6667 8.00129 20.6667Z" fill="white"/>
<path id="Oval Copy" fill-rule="evenodd" clip-rule="evenodd" d="M17.3333 20.6667C18.0697 20.6667 18.6666 20.0697 18.6666 19.3333C18.6666 18.597 18.0697 18 17.3333 18C16.5969 18 16 18.597 16 19.3333C16 20.0697 16.5969 20.6667 17.3333 20.6667Z" fill="white"/>
</g>
</g>
</g>
</svg>
